<?xml version="1.0"?><svg id="Layer_1" xmlns="http://www.w3.org/2000/svg" width="874.799" height="1000" viewBox="0 0 874.799 1000"><path d="M874.799,437.399c0,241.569-258.88,562.601-437.399,562.601S0,678.969,0,437.399,195.83,0,437.399,0s437.399,195.83,437.399,437.399Z" fill="#6b9e7a"></path><circle cx="437.399" cy="437.399" r="283.542" fill="#fff"></circle><path d="M348.476,544.468c-5.479,0-10.665-1.274-15.553-3.814-4.894-2.54-8.857-6.751-11.888-12.62-3.035-5.869-4.548-13.596-4.548-23.185,0-10.367,2.055-20.787,6.164-31.255,4.109-10.465,9.584-20.443,16.434-29.934,6.845-9.487,14.477-17.903,22.891-25.241,8.41-7.336,17.118-13.156,26.12-17.461,8.999-4.301,17.508-6.456,25.533-6.456,3.912,0,7.579.734,11.007,2.201,3.42,1.468,6.698,3.477,9.831,6.017l23.772-9.099,2.348,1.468-25.533,112.403c-1.372,5.479-2.055,9.978-2.055,13.5,0,4.109,1.857,6.164,5.577,6.164,2.738,0,5.915-1.27,9.538-3.816,3.618-2.54,7.778-5.966,12.473-10.273l2.348,2.348c-2.937,4.696-6.604,9.246-11.005,13.647-4.405,4.403-9.297,8.072-14.676,11.007-5.383,2.935-11.107,4.401-17.169,4.401-6.655,0-12.033-2.008-16.14-6.017-4.111-4.007-6.164-10.22-6.164-18.635,0-2.738.096-5.379.294-7.925-7.829,8.804-16.097,16.436-24.801,22.893-8.708,6.456-16.976,9.684-24.799,9.684ZM351.117,491.643c0,10.373,1.712,17.856,5.137,22.451,3.422,4.599,7.97,6.896,13.647,6.896,4.696,0,9.391-1.468,14.087-4.403,4.696-2.935,9.782-7.14,15.263-12.618.389-2.348.879-4.792,1.466-7.338l18.49-84.522c-2.546-3.127-5.577-5.283-9.099-6.456s-6.653-1.761-9.391-1.761c-8.416,0-17.22,4.988-26.413,14.968-7.242,8.025-12.913,18.59-17.023,31.695-4.109,13.111-6.164,26.807-6.164,41.088Z" fill="#2a2f2b"></path><path d="M507.833,544.468c-6.066,0-11.056-1.568-14.966-4.696-3.916-3.127-5.869-7.726-5.869-13.792,0-3.522.389-7.728,1.174-12.62.779-4.888,1.661-9.782,2.642-14.674l13.792-66.034c1.761-8.019-1.078-13.692-8.512-17.021l-4.696-2.348.294-3.229,55.173-15.848,2.937,2.642-22.893,106.239c-.783,3.522-1.37,6.507-1.761,8.951-.395,2.45-.587,4.843-.587,7.191,0,4.305,1.955,6.456,5.869,6.456,2.937,0,5.869-.927,8.806-2.787,2.933-1.857,6.647-4.939,11.15-9.246l2.642,2.642c-4.892,7.24-11.107,13.747-18.637,19.516-7.534,5.769-16.387,8.657-26.56,8.657ZM535.127,378.066c-5.479,0-10.225-1.808-14.232-5.43-4.012-3.618-6.019-8.461-6.019-14.528,0-6.845,2.395-12.473,7.193-16.874,4.79-4.403,10.22-6.604,16.287-6.604,5.869,0,10.661,1.861,14.379,5.577,3.716,3.718,5.577,8.51,5.577,14.379,0,6.655-2.348,12.23-7.043,16.729-4.696,4.503-10.08,6.751-16.142,6.751Z" fill="#2a2f2b"></path></svg>